<svg width="61" height="60" viewBox="0 0 61 60" fill="none" xmlns="http://www.w3.org/2000/svg">
<path d="M48.6468 43.937C47.5859 38.5726 41.8224 31.2059 39.1569 28.2492C39.6246 31.5922 39.8981 39.4834 37.2514 44.3037C33.9431 50.329 30.5564 53.7569 26.083 56.0933C22.5042 57.9624 19.3754 58.3877 18.2583 58.3667C18.5929 58.5908 30.5347 60.4876 40.435 57.4645C49.8808 54.5802 49.973 50.6426 48.6468 43.937Z" fill="black"/>
<path d="M6.46311 23.6828C5.53375 27.3021 5.71122 35.7349 11.848 39.1664C19.8092 43.2532 26.4042 44.707 35.6551 41.5709C34.1198 45.552 28.8197 53.9842 19.9011 55.8642C8.75278 58.2143 0.237511 48.7209 0.0273396 42.5204C-0.165596 36.8284 0.572351 35.8768 5.11672 26.4168C5.5227 25.5717 5.99148 24.6689 6.46311 23.6828Z" fill="black"/>
<path d="M23.7058 18.3852C17.2544 26.2806 17.6186 35.3152 18.6071 38.8455C18.4674 38.8731 15.4904 38.0717 13.4824 36.7269C11.4745 35.3821 10.2738 34.6871 9.07097 31.7314C8.10873 29.3668 8.22993 26.1485 8.3095 24.792C8.57948 20.9211 10.6213 15.0892 12.8848 11.3801C16.6718 4.99971 23.2135 0.48231 31.339 1.19788C37.8394 1.77033 42.025 6.05226 43.3053 8.12166C42.1214 8.00742 40.8757 8.06992 40.4008 8.11546C37.5239 8.24895 30.1573 10.4898 23.7058 18.3852Z" fill="black"/>
<path d="M36.1955 11.826C30.2256 13.9358 25.0159 20.134 23.1573 22.9693C27.2086 22.1681 32.4588 22.291 36.2812 24.0028C40.1037 25.7146 43.9768 29.8841 45.7867 32.4294C47.5965 34.9747 49.5983 39.2241 50.8171 43.9186C51.7921 47.6742 50.9684 51.5339 50.4346 52.9943C51.6643 52.606 57.9308 47.5923 59.1406 43.4336C60.3504 39.275 59.8838 35.4478 58.8308 31.5915C57.7778 27.7352 52.9346 20.1285 49.5067 16.7418C46.0788 13.3552 43.6579 9.1888 36.1955 11.826Z" fill="black"/>
</svg>
